<?xml version="1.0" encoding="utf-8"?>
<!-- Generator: Adobe Illustrator 26.0.2, SVG Export Plug-In . SVG Version: 6.00 Build 0)  -->
<svg version="1.1" id="opsis" xmlns="http://www.w3.org/2000/svg" xmlns:xlink="http://www.w3.org/1999/xlink" x="0px" y="0px"
	 viewBox="0 0 200 200" style="enable-background:new 0 0 200 200;" xml:space="preserve">
<style type="text/css">
	.st0{fill:#002147;}
	.st1{fill:#FFFFFF;}
	.st2{opacity:0.3;clip-path:url(#SVGID_00000019671624526581488820000012826772579139527588_);}
	.st3{clip-path:url(#SVGID_00000019671624526581488820000012826772579139527588_);}
	.st4{fill:none;stroke:#FFFFFF;stroke-width:2;stroke-miterlimit:10;}
	.st5{fill:#002147;stroke:#FFFFFF;stroke-width:10;stroke-miterlimit:10;}
	.st6{fill:#002147;stroke:#FFFFFF;stroke-width:6;stroke-miterlimit:10;}
</style>
<rect class="st0" width="200" height="200"/>
<g>
	<path class="st1" d="M17.99,110.24c0-3.48,2.69-6.28,6.45-6.28s6.45,2.8,6.45,6.28c0,3.5-2.69,6.3-6.45,6.3
		S17.99,113.74,17.99,110.24z M28.15,110.24c0-2.16-1.56-3.9-3.69-3.9c-2.13,0-3.73,1.73-3.73,3.9c0,2.18,1.58,3.91,3.73,3.91
		C26.59,114.15,28.15,112.42,28.15,110.24z"/>
	<path class="st1" d="M35,111.54l-3.1-4.61h2.77l1.11,1.69c0.34,0.53,0.81,1.47,0.81,1.47s0.47-0.9,0.79-1.47l1.13-1.69h2.77
		l-3.12,4.61l3.12,4.8h-2.78l-1.05-1.71c-0.36-0.58-0.85-1.56-0.85-1.56s-0.45,0.94-0.81,1.56l-1.11,1.71H31.9L35,111.54z"/>
	<path class="st1" d="M42.85,108.98h-1.47v-2.03h1.47v-0.62c0-2.18,1.2-3.12,2.8-3.12c0.85,0,1.79,0.24,2.45,0.58l-0.72,1.86
		c-0.21-0.09-0.62-0.28-1.05-0.28c-0.53,0-0.96,0.26-0.96,1.24v0.34h2.35v2.03h-2.35v7.36h-2.52V108.98z"/>
	<path class="st1" d="M48.32,111.63c0-2.73,2.22-4.89,5.02-4.89c2.82,0,5.04,2.16,5.04,4.89c0,2.73-2.22,4.89-5.04,4.89
		C50.54,116.52,48.32,114.36,48.32,111.63z M55.81,111.63c0-1.47-1.05-2.56-2.46-2.56c-1.41,0-2.46,1.09-2.46,2.56
		c0,1.49,1.05,2.56,2.46,2.56C54.76,114.19,55.81,113.12,55.81,111.63z"/>
	<path class="st1" d="M60.03,106.93h2.48v1.81c0.26-0.77,1.22-1.99,3.29-1.99v2.75c-2.18,0-3.26,1-3.26,3.24v3.61h-2.52V106.93z"/>
	<path class="st1" d="M66.82,111.63c0-2.71,1.69-4.89,4.29-4.89c1.09,0,2.16,0.43,2.84,1.24v-4.03h2.52v12.38h-2.39v-1.13
		c-0.68,0.9-1.88,1.32-3.01,1.32C68.47,116.52,66.82,114.34,66.82,111.63z M73.95,111.63c0-1.47-0.94-2.56-2.24-2.56
		c-1.35,0-2.33,1.09-2.33,2.56c0,1.49,0.98,2.56,2.33,2.56C73.01,114.19,73.95,113.14,73.95,111.63z"/>
	<path class="st1" d="M82.77,104.14H88c3.58,0,5.46,2.11,5.46,4.7c0,2.6-1.88,4.7-5.48,4.7h-2.58v2.78h-2.63V104.14z M88.12,111.29
		c1.56,0,2.58-1.09,2.58-2.45c0-1.35-1.02-2.45-2.56-2.45h-2.73v4.89H88.12z"/>
	<path class="st1" d="M95.11,106.93h2.48v1.81c0.26-0.77,1.22-1.99,3.29-1.99v2.75c-2.18,0-3.26,1-3.26,3.24v3.61h-2.52V106.93z"/>
	<path class="st1" d="M101.91,111.63c0-2.73,2.22-4.89,5.02-4.89c2.82,0,5.04,2.16,5.04,4.89c0,2.73-2.22,4.89-5.04,4.89
		C104.13,116.52,101.91,114.36,101.91,111.63z M109.4,111.63c0-1.47-1.05-2.56-2.47-2.56c-1.41,0-2.46,1.09-2.46,2.56
		c0,1.49,1.05,2.56,2.46,2.56C108.34,114.19,109.4,113.12,109.4,111.63z"/>
	<path class="st1" d="M114,117.94l0.94-1.58c0.75,0.58,1.84,0.85,2.73,0.85c1.75,0,2.63-1.05,2.71-2.56
		c0.02-0.06,0.02-0.13,0.02-0.21c-0.41,0.73-1.43,1.39-2.82,1.39c-2.62,0-4.25-2.03-4.25-4.53c0-2.52,1.64-4.55,4.25-4.55
		c1.2,0,2.45,0.53,2.95,1.47v-1.28h2.39v7.13c0,3.09-1.86,5.04-4.99,5.04C116.24,119.1,114.87,118.65,114,117.94z M120.42,111.24
		c0-1.32-0.98-2.31-2.28-2.31c-1.28,0-2.26,1-2.26,2.37c0,1.36,0.98,2.33,2.26,2.33C119.46,113.63,120.42,112.65,120.42,111.24z"/>
	<path class="st1" d="M124.82,106.93h2.48v1.81c0.26-0.77,1.22-1.99,3.29-1.99v2.75c-2.18,0-3.26,1-3.26,3.24v3.61h-2.52V106.93z"/>
	<path class="st1" d="M131.61,111.63c0-2.71,1.66-4.89,4.25-4.89c1.09,0,2.26,0.43,2.94,1.34v-1.15h2.47v9.41h-2.47v-1.13
		c-0.66,0.9-1.84,1.32-2.94,1.32C133.27,116.52,131.61,114.34,131.61,111.63z M138.75,111.63c0-1.47-0.94-2.56-2.24-2.56
		c-1.35,0-2.33,1.09-2.33,2.56c0,1.49,0.98,2.56,2.33,2.56C137.81,114.19,138.75,113.14,138.75,111.63z"/>
	<path class="st1" d="M143.19,106.93h2.46v1.26c0.55-0.85,1.66-1.45,2.79-1.45c1.49,0,2.41,0.62,2.9,1.67
		c0.68-1.13,1.98-1.67,3.05-1.67c2.65,0,3.48,1.83,3.48,4.23v5.36h-2.52v-5.04c0-1.24-0.3-2.16-1.64-2.16c-1.24,0-1.92,1-1.92,2.24
		v4.97h-2.52v-5.04c0-1.24-0.28-2.16-1.64-2.16c-1.28,0-1.92,1.09-1.92,2.33v4.87h-2.52V106.93z"/>
	<path class="st1" d="M159.65,106.93h2.46v1.26c0.55-0.85,1.66-1.45,2.79-1.45c1.49,0,2.41,0.62,2.9,1.67
		c0.68-1.13,1.98-1.67,3.05-1.67c2.65,0,3.48,1.83,3.48,4.23v5.36h-2.52v-5.04c0-1.24-0.3-2.16-1.64-2.16c-1.24,0-1.92,1-1.92,2.24
		v4.97h-2.52v-5.04c0-1.24-0.28-2.16-1.64-2.16c-1.28,0-1.92,1.09-1.92,2.33v4.87h-2.52V106.93z"/>
	<path class="st1" d="M175.83,111.63c0-2.71,2.11-4.89,4.87-4.89c2.56,0,4.57,2.18,4.57,4.85c0,0.45-0.06,0.9-0.06,0.9h-6.83
		c0.3,1.3,1.37,1.92,2.62,1.92c0.9,0,1.84-0.26,2.54-0.73l0.94,1.81c-1.05,0.7-2.28,1.04-3.5,1.04
		C178.24,116.52,175.83,114.74,175.83,111.63z M182.9,110.82c-0.19-1.19-1.13-1.98-2.28-1.98c-1.09,0-2.03,0.79-2.28,1.98H182.9z"/>
	<path class="st1" d="M18.58,129.36h-1.47v-2.03h1.47v-0.62c0-2.18,1.2-3.12,2.8-3.12c0.85,0,1.79,0.24,2.45,0.58l-0.72,1.86
		c-0.21-0.09-0.62-0.28-1.05-0.28c-0.53,0-0.96,0.26-0.96,1.24v0.34h2.35v2.03H21.1v7.36h-2.52V129.36z"/>
	<path class="st1" d="M24.05,132.01c0-2.73,2.22-4.89,5.02-4.89c2.82,0,5.04,2.16,5.04,4.89c0,2.73-2.22,4.89-5.04,4.89
		C26.27,136.91,24.05,134.74,24.05,132.01z M31.54,132.01c0-1.47-1.05-2.56-2.46-2.56c-1.41,0-2.46,1.09-2.46,2.56
		c0,1.49,1.05,2.56,2.46,2.56C30.49,134.57,31.54,133.5,31.54,132.01z"/>
	<path class="st1" d="M35.76,127.31h2.48v1.81c0.26-0.77,1.22-1.99,3.29-1.99v2.75c-2.18,0-3.26,1-3.26,3.24v3.61h-2.52V127.31z"/>
	<path class="st1" d="M46.82,135.27l0.96-2.03c0.98,0.72,2.15,1.34,4.01,1.34c1.02,0,2.26-0.47,2.26-1.43
		c0-0.94-1.09-1.19-2.16-1.45c-2.28-0.53-4.63-1.3-4.63-3.84c0-2.35,2.2-3.52,4.53-3.52c1.84,0,3.24,0.49,4.46,1.3l-0.96,2.03
		c-0.98-0.64-2.26-0.98-3.5-0.98c-0.64,0-1.84,0.24-1.84,1.17c0,0.79,0.88,1.07,2.09,1.35c2.16,0.51,4.76,1.32,4.76,3.93
		c0,2.63-2.56,3.78-5.01,3.78C48.87,136.93,47.5,135.82,46.82,135.27z"/>
	<path class="st1" d="M58.45,132.94v-5.63h2.52v5.29c0,1.32,0.56,1.92,1.73,1.92c1.32,0,1.96-1.11,1.96-2.39v-4.82h2.52v9.41h-2.37
		v-1.32c-0.56,0.92-1.84,1.51-2.94,1.51C59.27,136.91,58.45,135.38,58.45,132.94z"/>
	<path class="st1" d="M68.61,135.63l0.9-1.94c0.64,0.49,1.52,1,2.94,1c0.58,0,1.54-0.23,1.54-0.79c0-0.56-0.81-0.7-1.62-0.92
		c-1.86-0.49-3.39-1.11-3.39-2.92c0-1.92,1.88-2.94,3.65-2.94c1.54,0,2.52,0.38,3.5,0.94l-0.85,1.88c-0.92-0.45-1.79-0.66-2.62-0.66
		c-0.58,0-1.13,0.26-1.13,0.66c0,0.53,0.79,0.7,1.66,0.88c1.6,0.38,3.35,1.07,3.35,2.99c0,2.31-2.35,3.09-4.1,3.09
		C70.43,136.91,69.13,136.12,68.61,135.63z"/>
	<path class="st1" d="M78.69,133.69v-4.35h-1.37v-2.03h1.37v-1.81l2.52-0.56v2.37h2.6v2.03h-2.6v4.31c0,0.81,0.4,1.07,0.85,1.07
		c0.6,0,1.13-0.34,1.2-0.4l0.72,1.86c-0.56,0.38-1.39,0.72-2.39,0.72C79.71,136.91,78.69,135.82,78.69,133.69z"/>
	<path class="st1" d="M84.88,132.01c0-2.71,1.66-4.89,4.25-4.89c1.09,0,2.26,0.43,2.94,1.34v-1.15h2.46v9.41h-2.46v-1.13
		c-0.66,0.9-1.84,1.32-2.94,1.32C86.54,136.91,84.88,134.72,84.88,132.01z M92.01,132.01c0-1.47-0.94-2.56-2.24-2.56
		c-1.35,0-2.33,1.09-2.33,2.56c0,1.49,0.98,2.56,2.33,2.56C91.07,134.57,92.01,133.52,92.01,132.01z"/>
	<path class="st1" d="M96.21,124.68c0-0.83,0.68-1.51,1.49-1.51c0.83,0,1.51,0.68,1.51,1.51c0,0.81-0.68,1.49-1.51,1.49
		C96.88,126.16,96.21,125.49,96.21,124.68z M96.45,127.31h2.52v9.41h-2.52V127.31z"/>
	<path class="st1" d="M100.89,127.31h2.46v1.26c0.75-1.04,1.83-1.45,2.97-1.45c2.48,0,3.35,1.6,3.35,4.18v5.42h-2.52v-5.1
		c0-1.37-0.36-2.11-1.64-2.11c-1.26,0-2.11,1.02-2.11,2.45v4.76h-2.52V127.31z"/>
	<path class="st1" d="M111.18,132.01c0-2.71,1.66-4.89,4.25-4.89c1.09,0,2.26,0.43,2.94,1.34v-1.15h2.47v9.41h-2.47v-1.13
		c-0.66,0.9-1.84,1.32-2.94,1.32C112.84,136.91,111.18,134.72,111.18,132.01z M118.31,132.01c0-1.47-0.94-2.56-2.24-2.56
		c-1.35,0-2.33,1.09-2.33,2.56c0,1.49,0.98,2.56,2.33,2.56C117.37,134.57,118.31,133.52,118.31,132.01z"/>
	<path class="st1" d="M125.14,135.59v1.13h-2.39v-12.38h2.52v4.03c0.68-0.81,1.75-1.24,2.84-1.24c2.6,0,4.29,2.18,4.29,4.89
		c0,2.71-1.66,4.89-4.25,4.89C127.03,136.91,125.84,136.49,125.14,135.59z M129.85,132.01c0-1.47-0.98-2.56-2.33-2.56
		c-1.3,0-2.24,1.09-2.24,2.56c0,1.51,0.96,2.56,2.24,2.56C128.87,134.57,129.85,133.5,129.85,132.01z"/>
	<path class="st1" d="M134.04,124.34h2.52v12.38h-2.52V124.34z"/>
	<path class="st1" d="M138.2,132.01c0-2.71,2.11-4.89,4.87-4.89c2.56,0,4.57,2.18,4.57,4.85c0,0.45-0.06,0.9-0.06,0.9h-6.83
		c0.3,1.3,1.37,1.92,2.62,1.92c0.9,0,1.84-0.26,2.54-0.73l0.94,1.81c-1.05,0.7-2.28,1.04-3.5,1.04
		C140.61,136.91,138.2,135.12,138.2,132.01z M145.28,131.21c-0.19-1.19-1.13-1.98-2.28-1.98c-1.09,0-2.03,0.79-2.28,1.98H145.28z"/>
	<path class="st1" d="M18.43,144.91h2.63v12.19h-2.63V144.91z"/>
	<path class="st1" d="M23.24,147.69h2.46v1.26c0.75-1.04,1.83-1.45,2.97-1.45c2.48,0,3.35,1.6,3.35,4.18v5.42h-2.52V152
		c0-1.37-0.36-2.11-1.64-2.11c-1.26,0-2.11,1.02-2.11,2.45v4.76h-2.52V147.69z"/>
	<path class="st1" d="M34.21,149.74h-1.47v-2.03h1.47v-0.62c0-2.18,1.2-3.12,2.8-3.12c0.85,0,1.79,0.24,2.45,0.58l-0.72,1.86
		c-0.21-0.09-0.62-0.28-1.05-0.28c-0.53,0-0.96,0.26-0.96,1.24v0.34h2.35v2.03h-2.35v7.36h-2.52V149.74z"/>
	<path class="st1" d="M40.14,147.69h2.48v1.81c0.26-0.77,1.22-1.99,3.29-1.99v2.75c-2.18,0-3.26,1-3.26,3.24v3.61h-2.52V147.69z"/>
	<path class="st1" d="M46.93,152.4c0-2.71,1.66-4.89,4.25-4.89c1.09,0,2.26,0.43,2.94,1.34v-1.15h2.46v9.41h-2.46v-1.13
		c-0.66,0.9-1.84,1.32-2.94,1.32C48.59,157.29,46.93,155.11,46.93,152.4z M54.06,152.4c0-1.47-0.94-2.56-2.24-2.56
		c-1.35,0-2.33,1.09-2.33,2.56c0,1.49,0.98,2.56,2.33,2.56C53.12,154.96,54.06,153.9,54.06,152.4z"/>
	<path class="st1" d="M58.01,156.01l0.9-1.94c0.64,0.49,1.52,1,2.94,1c0.58,0,1.54-0.23,1.54-0.79c0-0.56-0.81-0.7-1.62-0.92
		c-1.86-0.49-3.39-1.11-3.39-2.92c0-1.92,1.88-2.94,3.65-2.94c1.54,0,2.52,0.38,3.5,0.94l-0.85,1.88c-0.92-0.45-1.79-0.66-2.62-0.66
		c-0.58,0-1.13,0.26-1.13,0.66c0,0.53,0.79,0.7,1.66,0.88c1.6,0.38,3.35,1.07,3.35,2.99c0,2.31-2.35,3.09-4.1,3.09
		C59.84,157.29,58.54,156.5,58.01,156.01z"/>
	<path class="st1" d="M68.1,154.07v-4.35h-1.37v-2.03h1.37v-1.81l2.52-0.56v2.37h2.6v2.03h-2.6v4.31c0,0.81,0.4,1.07,0.85,1.07
		c0.6,0,1.13-0.34,1.2-0.4l0.71,1.86c-0.56,0.38-1.39,0.72-2.39,0.72C69.11,157.29,68.1,156.2,68.1,154.07z"/>
	<path class="st1" d="M74.63,147.69h2.48v1.81c0.26-0.77,1.22-1.99,3.29-1.99v2.75c-2.18,0-3.26,1-3.26,3.24v3.61h-2.52V147.69z"/>
	<path class="st1" d="M81.64,153.32v-5.63h2.52v5.29c0,1.32,0.56,1.92,1.73,1.92c1.32,0,1.96-1.11,1.96-2.39v-4.82h2.52v9.41H88
		v-1.32c-0.56,0.92-1.84,1.51-2.94,1.51C82.47,157.29,81.64,155.77,81.64,153.32z"/>
	<path class="st1" d="M92.01,152.4c0-2.73,2.22-4.89,5.02-4.89c1.3,0,2.43,0.43,3.37,1.2l-1.52,1.77c-0.43-0.4-1.04-0.64-1.79-0.64
		c-1.47,0-2.52,1.07-2.52,2.56c0,1.47,1,2.56,2.6,2.56c0.79,0,1.56-0.3,2.05-0.77l1.34,1.88c-0.9,0.77-2.16,1.22-3.52,1.22
		C94.23,157.29,92.01,155.13,92.01,152.4z"/>
	<path class="st1" d="M102.49,154.07v-4.35h-1.37v-2.03h1.37v-1.81l2.52-0.56v2.37h2.6v2.03h-2.6v4.31c0,0.81,0.4,1.07,0.85,1.07
		c0.6,0,1.13-0.34,1.2-0.4l0.72,1.86c-0.56,0.38-1.39,0.72-2.39,0.72C103.51,157.29,102.49,156.2,102.49,154.07z"/>
	<path class="st1" d="M108.89,153.32v-5.63h2.52v5.29c0,1.32,0.56,1.92,1.73,1.92c1.32,0,1.96-1.11,1.96-2.39v-4.82h2.52v9.41h-2.37
		v-1.32c-0.56,0.92-1.84,1.51-2.94,1.51C109.71,157.29,108.89,155.77,108.89,153.32z"/>
	<path class="st1" d="M119.54,147.69h2.48v1.81c0.26-0.77,1.22-1.99,3.29-1.99v2.75c-2.18,0-3.26,1-3.26,3.24v3.61h-2.52V147.69z"/>
	<path class="st1" d="M126.33,152.4c0-2.71,2.11-4.89,4.87-4.89c2.56,0,4.57,2.18,4.57,4.85c0,0.45-0.06,0.9-0.06,0.9h-6.83
		c0.3,1.3,1.37,1.92,2.62,1.92c0.9,0,1.84-0.26,2.54-0.73l0.94,1.81c-1.05,0.7-2.28,1.04-3.5,1.04
		C128.74,157.29,126.33,155.5,126.33,152.4z M133.4,151.59c-0.19-1.19-1.13-1.98-2.28-1.98c-1.09,0-2.03,0.79-2.28,1.98H133.4z"/>
	<path class="st1" d="M17.96,176.04l0.96-2.03c0.98,0.72,2.15,1.34,4.01,1.34c1.02,0,2.26-0.47,2.26-1.43
		c0-0.94-1.09-1.19-2.16-1.45c-2.28-0.53-4.63-1.3-4.63-3.84c0-2.35,2.2-3.52,4.53-3.52c1.84,0,3.24,0.49,4.46,1.3l-0.96,2.03
		c-0.98-0.64-2.26-0.98-3.5-0.98c-0.64,0-1.84,0.24-1.84,1.17c0,0.79,0.88,1.07,2.09,1.35c2.16,0.51,4.76,1.32,4.76,3.93
		c0,2.63-2.56,3.78-5.01,3.78C20.01,177.69,18.63,176.58,17.96,176.04z"/>
	<path class="st1" d="M30.67,177.95c1.17,0,1.6-0.4,1.94-1.13l0.21-0.41l-3.93-8.34h2.56l1.9,4.4c0.28,0.66,0.62,1.6,0.62,1.6
		s0.4-1.11,0.6-1.66l1.71-4.35h2.52l-4.18,9.67c-1.02,2.31-2.78,2.5-3.95,2.5V177.95z"/>
	<path class="st1" d="M39.35,176.39l0.9-1.94c0.64,0.49,1.52,1,2.94,1c0.58,0,1.54-0.23,1.54-0.79c0-0.56-0.81-0.7-1.62-0.92
		c-1.86-0.49-3.39-1.11-3.39-2.92c0-1.92,1.88-2.94,3.65-2.94c1.54,0,2.52,0.38,3.5,0.94l-0.85,1.88c-0.92-0.45-1.79-0.66-2.62-0.66
		c-0.58,0-1.13,0.26-1.13,0.66c0,0.53,0.79,0.7,1.66,0.88c1.6,0.38,3.35,1.07,3.35,2.99c0,2.31-2.35,3.09-4.1,3.09
		C41.17,177.67,39.88,176.88,39.35,176.39z"/>
	<path class="st1" d="M49.43,174.46v-4.35h-1.37v-2.03h1.37v-1.81l2.52-0.56v2.37h2.6v2.03h-2.6v4.31c0,0.81,0.4,1.07,0.85,1.07
		c0.6,0,1.13-0.34,1.2-0.4l0.72,1.86c-0.56,0.38-1.39,0.72-2.39,0.72C50.45,177.67,49.43,176.58,49.43,174.46z"/>
	<path class="st1" d="M55.62,172.78c0-2.71,2.11-4.89,4.87-4.89c2.56,0,4.57,2.18,4.57,4.85c0,0.45-0.06,0.9-0.06,0.9h-6.83
		c0.3,1.3,1.37,1.92,2.62,1.92c0.9,0,1.84-0.26,2.54-0.73l0.94,1.81c-1.05,0.7-2.28,1.04-3.5,1.04
		C58.03,177.67,55.62,175.89,55.62,172.78z M62.7,171.97c-0.19-1.19-1.13-1.98-2.28-1.98c-1.09,0-2.03,0.79-2.28,1.98H62.7z"/>
	<path class="st1" d="M66.72,168.08h2.46v1.26c0.55-0.85,1.66-1.45,2.78-1.45c1.49,0,2.41,0.62,2.9,1.67
		c0.68-1.13,1.98-1.67,3.05-1.67c2.65,0,3.48,1.83,3.48,4.23v5.36h-2.52v-5.04c0-1.24-0.3-2.16-1.64-2.16c-1.24,0-1.92,1-1.92,2.24
		v4.97H72.8v-5.04c0-1.24-0.28-2.16-1.64-2.16c-1.28,0-1.92,1.09-1.92,2.33v4.87h-2.52V168.08z"/>
	<path class="st1" d="M82.7,176.39l0.9-1.94c0.64,0.49,1.52,1,2.94,1c0.58,0,1.54-0.23,1.54-0.79c0-0.56-0.81-0.7-1.62-0.92
		c-1.86-0.49-3.39-1.11-3.39-2.92c0-1.92,1.88-2.94,3.65-2.94c1.54,0,2.52,0.38,3.5,0.94l-0.85,1.88c-0.92-0.45-1.79-0.66-2.62-0.66
		c-0.58,0-1.13,0.26-1.13,0.66c0,0.53,0.79,0.7,1.66,0.88c1.6,0.38,3.35,1.07,3.35,2.99c0,2.31-2.35,3.09-4.1,3.09
		C84.52,177.67,83.22,176.88,82.7,176.39z"/>
</g>
<g>
	<defs>
		<rect id="SVGID_1_" width="200" height="131.96"/>
	</defs>
	<clipPath id="SVGID_00000080176657040595585980000010013206472684949637_">
		<use xlink:href="#SVGID_1_"  style="overflow:visible;"/>
	</clipPath>
	<g style="opacity:0.3;clip-path:url(#SVGID_00000080176657040595585980000010013206472684949637_);">
		<path class="st1" d="M12.95,106.94c-1.88,0-3.62-0.33-5.21-0.98c-1.59-0.65-2.97-1.57-4.14-2.77C2.43,102,1.52,100.6,0.87,99
			c-0.65-1.61-0.98-3.36-0.98-5.27c0-1.91,0.33-3.66,0.98-5.27c0.65-1.61,1.56-3,2.73-4.18c1.17-1.18,2.55-2.09,4.14-2.75
			c1.59-0.65,3.33-0.98,5.21-0.98c1.88,0,3.62,0.33,5.21,0.98c1.59,0.65,2.98,1.57,4.16,2.75c1.18,1.18,2.09,2.57,2.73,4.18
			c0.64,1.61,0.96,3.36,0.96,5.27c0,1.91-0.32,3.66-0.96,5.27c-0.64,1.61-1.55,3-2.73,4.2c-1.18,1.19-2.57,2.11-4.16,2.77
			C16.57,106.61,14.83,106.94,12.95,106.94z M12.95,100.69c1.33,0,2.45-0.31,3.37-0.94c0.92-0.63,1.61-1.47,2.09-2.52
			c0.48-1.05,0.71-2.22,0.71-3.5c0-1.28-0.24-2.45-0.71-3.5c-0.48-1.05-1.17-1.89-2.09-2.52c-0.92-0.63-2.04-0.94-3.37-0.94
			c-1.3,0-2.41,0.31-3.33,0.94C8.7,88.34,8,89.18,7.51,90.23c-0.49,1.05-0.73,2.22-0.73,3.5c0,1.28,0.24,2.45,0.73,3.5
			C8,98.28,8.7,99.12,9.62,99.75C10.53,100.38,11.64,100.69,12.95,100.69z"/>
		<path class="st1" d="M27.66,106.34v-25.1H37.9c2.68,0,4.84,0.71,6.47,2.13c1.63,1.42,2.45,3.48,2.45,6.19
			c0,1.71-0.38,3.19-1.13,4.46c-0.75,1.27-1.78,2.25-3.09,2.94c-1.3,0.69-2.81,1.03-4.52,1.03h-3.91v8.35H27.66z M34.17,92.75h3.16
			c0.9,0,1.62-0.29,2.14-0.87c0.53-0.58,0.79-1.32,0.79-2.22c0-0.95-0.25-1.72-0.75-2.3c-0.5-0.58-1.24-0.87-2.22-0.87h-3.12V92.75z
			"/>
		<path class="st1" d="M46.17,103.25l4.03-4.85c0.7,0.7,1.62,1.34,2.77,1.92c1.14,0.58,2.38,0.87,3.71,0.87
			c0.68,0,1.33-0.14,1.96-0.41c0.63-0.28,0.94-0.8,0.94-1.58c0-0.65-0.34-1.2-1.02-1.64c-0.68-0.44-1.64-0.86-2.9-1.26l-1.39-0.45
			c-1.03-0.35-2.05-0.82-3.07-1.41c-1.02-0.59-1.86-1.35-2.52-2.28c-0.66-0.93-1-2.07-1-3.42c0-1.56,0.37-2.95,1.11-4.18
			c0.74-1.23,1.84-2.2,3.29-2.92c1.45-0.72,3.22-1.07,5.31-1.07c1.66,0,3.09,0.19,4.31,0.56c1.22,0.38,2.23,0.82,3.03,1.32
			c0.8,0.5,1.39,0.95,1.77,1.35l-3.39,4.29c-0.88-0.65-1.79-1.19-2.75-1.6c-0.95-0.41-1.93-0.62-2.94-0.62
			c-0.65,0-1.27,0.14-1.86,0.43c-0.59,0.29-0.88,0.78-0.88,1.49c0,0.78,0.35,1.34,1.05,1.69c0.7,0.35,1.59,0.7,2.67,1.05l1.2,0.38
			c0.85,0.25,1.71,0.57,2.58,0.96c0.87,0.39,1.66,0.88,2.39,1.49c0.73,0.6,1.31,1.36,1.75,2.28c0.44,0.92,0.66,2.04,0.66,3.37
			c0,1.53-0.46,2.9-1.37,4.1c-0.92,1.2-2.14,2.14-3.69,2.82c-1.54,0.68-3.25,1.02-5.14,1.02c-2.51,0-4.61-0.34-6.3-1.02
			C48.79,105.25,47.35,104.36,46.17,103.25z"/>
		<path class="st1" d="M68.56,106.34v-25.1h6.66v25.1H68.56z"/>
		<path class="st1" d="M75.79,103.25l4.03-4.85c0.7,0.7,1.62,1.34,2.77,1.92c1.14,0.58,2.38,0.87,3.71,0.87
			c0.68,0,1.33-0.14,1.96-0.41c0.63-0.28,0.94-0.8,0.94-1.58c0-0.65-0.34-1.2-1.02-1.64c-0.68-0.44-1.64-0.86-2.9-1.26l-1.39-0.45
			c-1.03-0.35-2.05-0.82-3.07-1.41c-1.02-0.59-1.86-1.35-2.52-2.28c-0.66-0.93-1-2.07-1-3.42c0-1.56,0.37-2.95,1.11-4.18
			c0.74-1.23,1.84-2.2,3.29-2.92c1.45-0.72,3.22-1.07,5.31-1.07c1.66,0,3.09,0.19,4.31,0.56c1.22,0.38,2.23,0.82,3.03,1.32
			c0.8,0.5,1.39,0.95,1.77,1.35l-3.39,4.29c-0.88-0.65-1.79-1.19-2.75-1.6c-0.95-0.41-1.93-0.62-2.94-0.62
			c-0.65,0-1.27,0.14-1.86,0.43c-0.59,0.29-0.88,0.78-0.88,1.49c0,0.78,0.35,1.34,1.05,1.69c0.7,0.35,1.59,0.7,2.67,1.05l1.2,0.38
			c0.85,0.25,1.71,0.57,2.58,0.96c0.87,0.39,1.66,0.88,2.39,1.49c0.73,0.6,1.31,1.36,1.75,2.28c0.44,0.92,0.66,2.04,0.66,3.37
			c0,1.53-0.46,2.9-1.37,4.1c-0.92,1.2-2.15,2.14-3.69,2.82c-1.54,0.68-3.26,1.02-5.14,1.02c-2.51,0-4.61-0.34-6.3-1.02
			C78.4,105.25,76.97,104.36,75.79,103.25z"/>
	</g>
	<g style="clip-path:url(#SVGID_00000080176657040595585980000010013206472684949637_);">
		<polyline class="st4" points="-1.39,42.81 22.36,42.81 40.91,17.84 85.82,-5.11 134.75,17.84 206.99,17.84 		"/>
		<path class="st4" d="M133.1-5.11"/>
		<polyline class="st4" points="115.13,-5.11 134.75,17.84 150.08,73.77 206.99,48.37 		"/>
		<polyline class="st4" points="0,0 40.91,17.84 76.4,29.89 134.75,17.84 		"/>
		<polyline class="st4" points="135.43,17.84 107.72,51.61 150.08,73.77 181.36,37.26 181.36,-7.82 		"/>
		<line class="st4" x1="150.08" y1="73.77" x2="204.33" y2="73.77"/>
		<line class="st4" x1="40.91" y1="17.84" x2="71.96" y2="62.66"/>
	</g>
</g>
<g>
	<circle class="st5" cx="150.08" cy="73.77" r="11.11"/>
	<circle class="st6" cx="40.91" cy="17.84" r="6.67"/>
	<circle class="st1" cx="134.75" cy="17.84" r="5.56"/>
	<circle class="st1" cx="107.72" cy="51.61" r="5.56"/>
	<circle class="st1" cx="181.36" cy="37.26" r="5.56"/>
	<circle class="st1" cx="22.36" cy="42.81" r="5.56"/>
	<circle class="st1" cx="181.36" cy="17.84" r="4.44"/>
	<circle class="st1" cx="71.96" cy="62.66" r="4.44"/>
	<circle class="st1" cx="76.4" cy="29.89" r="4.44"/>
</g>
</svg>
